<svg width="20" height="20" viewBox="0 0 20 20" fill="none" xmlns="http://www.w3.org/2000/svg">
<path d="M1 9C1 5.229 1 3.343 2.172 2.172C3.343 1 5.229 1 9 1H11C14.771 1 16.657 1 17.828 2.172C19 3.343 19 5.229 19 9V11C19 14.771 19 16.657 17.828 17.828C16.657 19 14.771 19 11 19H9C5.229 19 3.343 19 2.172 17.828C1 16.657 1 14.771 1 11V9Z" stroke="black" stroke-width="1.5"/>
<path d="M14.5 7C15.3284 7 16 6.32843 16 5.5C16 4.67157 15.3284 4 14.5 4C13.6716 4 13 4.67157 13 5.5C13 6.32843 13.6716 7 14.5 7Z" fill="black"/>
<path d="M10 13C11.6569 13 13 11.6569 13 10C13 8.34315 11.6569 7 10 7C8.34315 7 7 8.34315 7 10C7 11.6569 8.34315 13 10 13Z" stroke="black" stroke-width="1.5"/>
</svg>
