<svg width="524" height="124" viewBox="0 0 524 124" fill="none" xmlns="http://www.w3.org/2000/svg">
<path d="M87.2693 122H79.4843L8.20834 13.356V122H0.42334V0.72699H8.20834L79.4843 109.025V0.72699H87.2693V122Z" fill="url(#paint0_linear_101_173)"/>
<path d="M87.2693 122H79.4843L8.20834 13.356V122H0.42334V0.72699H8.20834L79.4843 109.025V0.72699H87.2693V122Z" fill="url(#paint1_linear_101_173)"/>
<path d="M188.3 68.716C188.3 72.868 188.185 75.982 187.954 78.058H106.817C107.048 86.4773 108.893 93.5703 112.353 99.337C115.813 105.104 120.369 109.429 126.02 112.312C131.671 115.195 137.842 116.637 144.531 116.637C153.758 116.637 161.485 114.388 167.713 109.89C173.941 105.277 177.862 99.0487 179.477 91.206H187.608C185.763 100.779 181.034 108.564 173.422 114.561C165.81 120.443 156.18 123.384 144.531 123.384C135.766 123.384 127.923 121.423 121.003 117.502C114.083 113.581 108.662 107.987 104.741 100.721C100.82 93.3397 98.859 84.7473 98.859 74.944C98.859 65.1407 100.762 56.606 104.568 49.34C108.489 42.074 113.91 36.538 120.83 32.732C127.75 28.8107 135.65 26.85 144.531 26.85C153.527 26.85 161.312 28.8107 167.886 32.732C174.575 36.538 179.65 41.6703 183.11 48.129C186.57 54.4723 188.3 61.3347 188.3 68.716ZM180.515 71.657C180.861 63.353 179.362 56.3177 176.017 50.551C172.788 44.7843 168.347 40.517 162.696 37.749C157.045 34.8657 150.932 33.424 144.358 33.424C137.784 33.424 131.671 34.8657 126.02 37.749C120.484 40.517 115.928 44.7843 112.353 50.551C108.893 56.3177 107.048 63.353 106.817 71.657H180.515Z" fill="url(#paint2_linear_101_173)"/>
<path d="M188.3 68.716C188.3 72.868 188.185 75.982 187.954 78.058H106.817C107.048 86.4773 108.893 93.5703 112.353 99.337C115.813 105.104 120.369 109.429 126.02 112.312C131.671 115.195 137.842 116.637 144.531 116.637C153.758 116.637 161.485 114.388 167.713 109.89C173.941 105.277 177.862 99.0487 179.477 91.206H187.608C185.763 100.779 181.034 108.564 173.422 114.561C165.81 120.443 156.18 123.384 144.531 123.384C135.766 123.384 127.923 121.423 121.003 117.502C114.083 113.581 108.662 107.987 104.741 100.721C100.82 93.3397 98.859 84.7473 98.859 74.944C98.859 65.1407 100.762 56.606 104.568 49.34C108.489 42.074 113.91 36.538 120.83 32.732C127.75 28.8107 135.65 26.85 144.531 26.85C153.527 26.85 161.312 28.8107 167.886 32.732C174.575 36.538 179.65 41.6703 183.11 48.129C186.57 54.4723 188.3 61.3347 188.3 68.716ZM180.515 71.657C180.861 63.353 179.362 56.3177 176.017 50.551C172.788 44.7843 168.347 40.517 162.696 37.749C157.045 34.8657 150.932 33.424 144.358 33.424C137.784 33.424 131.671 34.8657 126.02 37.749C120.484 40.517 115.928 44.7843 112.353 50.551C108.893 56.3177 107.048 63.353 106.817 71.657H180.515Z" fill="url(#paint3_linear_101_173)"/>
<path d="M279.125 28.061V122H271.34V101.586C268.687 108.737 264.247 114.215 258.019 118.021C251.906 121.712 244.871 123.557 236.913 123.557C225.726 123.557 216.557 120.155 209.406 113.35C202.371 106.43 198.853 96.223 198.853 82.729V28.061H206.465V82.21C206.465 93.3973 209.291 101.99 214.942 107.987C220.593 113.869 228.263 116.81 237.951 116.81C248.1 116.81 256.174 113.581 262.171 107.122C268.284 100.663 271.34 91.0907 271.34 78.404V28.061H279.125Z" fill="url(#paint4_linear_101_173)"/>
<path d="M279.125 28.061V122H271.34V101.586C268.687 108.737 264.247 114.215 258.019 118.021C251.906 121.712 244.871 123.557 236.913 123.557C225.726 123.557 216.557 120.155 209.406 113.35C202.371 106.43 198.853 96.223 198.853 82.729V28.061H206.465V82.21C206.465 93.3973 209.291 101.99 214.942 107.987C220.593 113.869 228.263 116.81 237.951 116.81C248.1 116.81 256.174 113.581 262.171 107.122C268.284 100.663 271.34 91.0907 271.34 78.404V28.061H279.125Z" fill="url(#paint5_linear_101_173)"/>
<path d="M303.18 47.437C305.487 40.517 309.581 35.2693 315.463 31.694C321.345 28.0033 328.842 26.158 337.953 26.158V34.289H335.358C326.131 34.289 318.462 36.9417 312.349 42.247C306.236 47.437 303.18 55.9717 303.18 67.851V122H295.395V28.061H303.18V47.437Z" fill="url(#paint6_linear_101_173)"/>
<path d="M303.18 47.437C305.487 40.517 309.581 35.2693 315.463 31.694C321.345 28.0033 328.842 26.158 337.953 26.158V34.289H335.358C326.131 34.289 318.462 36.9417 312.349 42.247C306.236 47.437 303.18 55.9717 303.18 67.851V122H295.395V28.061H303.18V47.437Z" fill="url(#paint7_linear_101_173)"/>
<path d="M385.115 123.384C376.349 123.384 368.449 121.423 361.414 117.502C354.378 113.581 348.842 107.987 344.806 100.721C340.884 93.3397 338.924 84.7473 338.924 74.944C338.924 65.256 340.942 56.779 344.979 49.513C349.015 42.1317 354.551 36.538 361.587 32.732C368.737 28.8107 376.695 26.85 385.461 26.85C394.226 26.85 402.126 28.8107 409.162 32.732C416.197 36.538 421.675 42.074 425.597 49.34C429.633 56.606 431.652 65.1407 431.652 74.944C431.652 84.7473 429.633 93.3397 425.597 100.721C421.56 107.987 415.966 113.581 408.816 117.502C401.78 121.423 393.88 123.384 385.115 123.384ZM385.115 116.464C391.919 116.464 398.263 114.965 404.145 111.966C410.142 108.852 414.928 104.181 418.504 97.953C422.079 91.725 423.867 84.0553 423.867 74.944C423.867 65.948 422.079 58.336 418.504 52.108C414.928 45.88 410.199 41.2667 404.318 38.268C398.436 35.154 392.092 33.597 385.288 33.597C378.483 33.597 372.139 35.154 366.258 38.268C360.491 41.2667 355.82 45.88 352.245 52.108C348.669 58.336 346.882 65.948 346.882 74.944C346.882 84.0553 348.612 91.725 352.072 97.953C355.647 104.181 360.318 108.852 366.085 111.966C371.967 114.965 378.31 116.464 385.115 116.464Z" fill="url(#paint8_linear_101_173)"/>
<path d="M385.115 123.384C376.349 123.384 368.449 121.423 361.414 117.502C354.378 113.581 348.842 107.987 344.806 100.721C340.884 93.3397 338.924 84.7473 338.924 74.944C338.924 65.256 340.942 56.779 344.979 49.513C349.015 42.1317 354.551 36.538 361.587 32.732C368.737 28.8107 376.695 26.85 385.461 26.85C394.226 26.85 402.126 28.8107 409.162 32.732C416.197 36.538 421.675 42.074 425.597 49.34C429.633 56.606 431.652 65.1407 431.652 74.944C431.652 84.7473 429.633 93.3397 425.597 100.721C421.56 107.987 415.966 113.581 408.816 117.502C401.78 121.423 393.88 123.384 385.115 123.384ZM385.115 116.464C391.919 116.464 398.263 114.965 404.145 111.966C410.142 108.852 414.928 104.181 418.504 97.953C422.079 91.725 423.867 84.0553 423.867 74.944C423.867 65.948 422.079 58.336 418.504 52.108C414.928 45.88 410.199 41.2667 404.318 38.268C398.436 35.154 392.092 33.597 385.288 33.597C378.483 33.597 372.139 35.154 366.258 38.268C360.491 41.2667 355.82 45.88 352.245 52.108C348.669 58.336 346.882 65.948 346.882 74.944C346.882 84.0553 348.612 91.725 352.072 97.953C355.647 104.181 360.318 108.852 366.085 111.966C371.967 114.965 378.31 116.464 385.115 116.464Z" fill="url(#paint9_linear_101_173)"/>
<path d="M485.546 26.158C496.734 26.158 505.845 29.618 512.88 36.538C519.916 43.3427 523.433 53.492 523.433 66.986V122H515.821V67.505C515.821 56.3177 512.996 47.783 507.344 41.901C501.693 35.9037 494.023 32.905 484.335 32.905C474.186 32.905 466.055 36.1343 459.942 42.593C453.945 49.0517 450.946 58.6243 450.946 71.311V122H443.161V28.061H450.946V47.956C453.599 40.9207 457.982 35.5577 464.094 31.867C470.322 28.061 477.473 26.158 485.546 26.158Z" fill="url(#paint10_linear_101_173)"/>
<path d="M485.546 26.158C496.734 26.158 505.845 29.618 512.88 36.538C519.916 43.3427 523.433 53.492 523.433 66.986V122H515.821V67.505C515.821 56.3177 512.996 47.783 507.344 41.901C501.693 35.9037 494.023 32.905 484.335 32.905C474.186 32.905 466.055 36.1343 459.942 42.593C453.945 49.0517 450.946 58.6243 450.946 71.311V122H443.161V28.061H450.946V47.956C453.599 40.9207 457.982 35.5577 464.094 31.867C470.322 28.061 477.473 26.158 485.546 26.158Z" fill="url(#paint11_linear_101_173)"/>
<defs>
<linearGradient id="paint0_linear_101_173" x1="52.3158" y1="-44" x2="269.436" y2="146.18" gradientUnits="userSpaceOnUse">
<stop stop-color="#3D5DAE"/>
<stop offset="1" stop-color="#B8D8F1"/>
</linearGradient>
<linearGradient id="paint1_linear_101_173" x1="499.169" y1="32" x2="247.838" y2="165.227" gradientUnits="userSpaceOnUse">
<stop stop-color="#7752A0"/>
<stop offset="1" stop-color="#B8D8F1"/>
</linearGradient>
<linearGradient id="paint2_linear_101_173" x1="52.3158" y1="-44" x2="269.436" y2="146.18" gradientUnits="userSpaceOnUse">
<stop stop-color="#3D5DAE"/>
<stop offset="1" stop-color="#B8D8F1"/>
</linearGradient>
<linearGradient id="paint3_linear_101_173" x1="499.169" y1="32" x2="247.838" y2="165.227" gradientUnits="userSpaceOnUse">
<stop stop-color="#7752A0"/>
<stop offset="1" stop-color="#B8D8F1"/>
</linearGradient>
<linearGradient id="paint4_linear_101_173" x1="52.3158" y1="-44" x2="269.436" y2="146.18" gradientUnits="userSpaceOnUse">
<stop stop-color="#3D5DAE"/>
<stop offset="1" stop-color="#B8D8F1"/>
</linearGradient>
<linearGradient id="paint5_linear_101_173" x1="499.169" y1="32" x2="247.838" y2="165.227" gradientUnits="userSpaceOnUse">
<stop stop-color="#7752A0"/>
<stop offset="1" stop-color="#B8D8F1"/>
</linearGradient>
<linearGradient id="paint6_linear_101_173" x1="52.3158" y1="-44" x2="269.436" y2="146.18" gradientUnits="userSpaceOnUse">
<stop stop-color="#3D5DAE"/>
<stop offset="1" stop-color="#B8D8F1"/>
</linearGradient>
<linearGradient id="paint7_linear_101_173" x1="499.169" y1="32" x2="247.838" y2="165.227" gradientUnits="userSpaceOnUse">
<stop stop-color="#7752A0"/>
<stop offset="1" stop-color="#B8D8F1"/>
</linearGradient>
<linearGradient id="paint8_linear_101_173" x1="52.3158" y1="-44" x2="269.436" y2="146.18" gradientUnits="userSpaceOnUse">
<stop stop-color="#3D5DAE"/>
<stop offset="1" stop-color="#B8D8F1"/>
</linearGradient>
<linearGradient id="paint9_linear_101_173" x1="499.169" y1="32" x2="247.838" y2="165.227" gradientUnits="userSpaceOnUse">
<stop stop-color="#7752A0"/>
<stop offset="1" stop-color="#B8D8F1"/>
</linearGradient>
<linearGradient id="paint10_linear_101_173" x1="52.3158" y1="-44" x2="269.436" y2="146.18" gradientUnits="userSpaceOnUse">
<stop stop-color="#3D5DAE"/>
<stop offset="1" stop-color="#B8D8F1"/>
</linearGradient>
<linearGradient id="paint11_linear_101_173" x1="499.169" y1="32" x2="247.838" y2="165.227" gradientUnits="userSpaceOnUse">
<stop stop-color="#7752A0"/>
<stop offset="1" stop-color="#B8D8F1"/>
</linearGradient>
</defs>
</svg>
