<svg width="36" height="36" viewBox="0 0 36 36" fill="none" xmlns="http://www.w3.org/2000/svg">
<g id="Group 2">
<circle id="Ellipse 2" cx="18" cy="18" r="18" fill="white"/>
<g id="Group">
<path id="Vector" d="M9 17C9 13.229 9 11.343 10.172 10.172C11.343 9 13.229 9 17 9H19C22.771 9 24.657 9 25.828 10.172C27 11.343 27 13.229 27 17V19C27 22.771 27 24.657 25.828 25.828C24.657 27 22.771 27 19 27H17C13.229 27 11.343 27 10.172 25.828C9 24.657 9 22.771 9 19V17Z" stroke="black" stroke-width="1.5"/>
<path id="Vector_2" d="M22.5 15C23.3284 15 24 14.3284 24 13.5C24 12.6716 23.3284 12 22.5 12C21.6716 12 21 12.6716 21 13.5C21 14.3284 21.6716 15 22.5 15Z" fill="black"/>
<path id="Vector_3" d="M18 21C19.6569 21 21 19.6569 21 18C21 16.3431 19.6569 15 18 15C16.3431 15 15 16.3431 15 18C15 19.6569 16.3431 21 18 21Z" stroke="black" stroke-width="1.5"/>
</g>
</g>
</svg>
