<svg width="27" height="31" viewBox="0 0 27 31" fill="none" xmlns="http://www.w3.org/2000/svg">
<path id="N" fill-rule="evenodd" clip-rule="evenodd" d="M0 27.9V3.1C3.19559e-05 2.46289 0.19734 1.84126 0.565073 1.31971C0.932806 0.798157 1.4531 0.402016 2.05516 0.185194C2.65721 -0.0316272 3.31178 -0.0585981 3.92979 0.107953C4.5478 0.274503 5.09923 0.626486 5.50904 1.116L20.7692 19.3368V3.1C20.7692 2.27783 21.0975 1.48933 21.6817 0.907969C22.266 0.326606 23.0584 0 23.8846 0C24.7109 0 25.5033 0.326606 26.0875 0.907969C26.6718 1.48933 27 2.27783 27 3.1V27.9C27 28.5371 26.8027 29.1587 26.4349 29.6803C26.0672 30.2018 25.5469 30.598 24.9448 30.8148C24.3428 31.0316 23.6882 31.0586 23.0702 30.892C22.4522 30.7255 21.9008 30.3735 21.491 29.884L6.23077 11.6622V27.9C6.23077 28.3071 6.15019 28.7102 5.99363 29.0863C5.83706 29.4624 5.60758 29.8042 5.31829 30.092C5.029 30.3799 4.68557 30.6082 4.30759 30.764C3.92962 30.9198 3.5245 31 3.11538 31C2.70627 31 2.30115 30.9198 1.92318 30.764C1.5452 30.6082 1.20176 30.3799 0.912475 30.092C0.623184 29.8042 0.393707 29.4624 0.237144 29.0863C0.0805815 28.7102 -8.62152e-09 28.3071 0 27.9ZM2.07692 3.1V27.9C2.07692 28.1741 2.18633 28.4369 2.38108 28.6307C2.57583 28.8245 2.83997 28.9333 3.11538 28.9333C3.3908 28.9333 3.65494 28.8245 3.84969 28.6307C4.04444 28.4369 4.15385 28.1741 4.15385 27.9V8.80813C4.15394 8.59584 4.21974 8.38874 4.3423 8.21497C4.46487 8.04121 4.63824 7.90922 4.83884 7.83697C5.03944 7.76471 5.25755 7.75568 5.46349 7.81112C5.66943 7.86655 5.85321 7.98376 5.98985 8.1468L23.0871 28.5613C23.2237 28.7244 23.4075 28.8416 23.6134 28.897C23.8194 28.9524 24.0375 28.9434 24.2381 28.8712C24.4387 28.7989 24.6121 28.6669 24.7346 28.4932C24.8572 28.3194 24.923 28.1123 24.9231 27.9V3.1C24.9231 2.82594 24.8137 2.56311 24.6189 2.36932C24.4242 2.17554 24.16 2.06667 23.8846 2.06667C23.6092 2.06667 23.3451 2.17554 23.1503 2.36932C22.9556 2.56311 22.8462 2.82594 22.8462 3.1V22.1919C22.8461 22.4042 22.7803 22.6113 22.6577 22.785C22.5351 22.9588 22.3618 23.0908 22.1612 23.163C21.9606 23.2353 21.7425 23.2443 21.5365 23.1889C21.3306 23.1334 21.1468 23.0162 21.0102 22.8532L3.91292 2.43867C3.77629 2.27563 3.5925 2.15842 3.38656 2.10299C3.18062 2.04755 2.96252 2.05657 2.76192 2.12883C2.56131 2.20109 2.38794 2.33308 2.26538 2.50684C2.14282 2.6806 2.07702 2.88771 2.07692 3.1Z" fill="black"/>
</svg>
